<?xml version="1.0" encoding="utf-8"?>
<!-- Generator: Adobe Illustrator 25.0.0, SVG Export Plug-In . SVG Version: 6.00 Build 0)  -->
<svg version="1.1" id="Layer_1" xmlns="http://www.w3.org/2000/svg" xmlns:xlink="http://www.w3.org/1999/xlink" x="0px" y="0px"
	 viewBox="0 0 300 78" style="enable-background:new 0 0 300 78;" xml:space="preserve">
<style type="text/css">
	.st0{fill:#1A1A1A;}
</style>
<g>
	<path class="st0" d="M0,2h25v54.7h33.4V76H0V2z"/>
	<path class="st0" d="M76.3,72.7c-6.3-3.3-11.3-7.9-14.9-13.8C57.8,53.1,56,46.4,56,39c0-7.4,1.8-14.1,5.4-19.9S69.9,8.6,76.3,5.3
		c6.3-3.3,13.5-5,21.5-5c8,0,15.1,1.7,21.5,5c6.3,3.3,11.3,7.9,14.9,13.8s5.4,12.5,5.4,19.9c0,7.4-1.8,14.1-5.4,19.9
		c-3.6,5.9-8.6,10.5-14.9,13.8c-6.3,3.3-13.5,5-21.5,5C89.8,77.7,82.6,76.1,76.3,72.7z M106.2,55.2c2.5-1.5,4.5-3.7,6-6.5
		c1.5-2.8,2.2-6,2.2-9.8c0-3.7-0.7-7-2.2-9.8c-1.5-2.8-3.5-4.9-6-6.5c-2.5-1.5-5.3-2.3-8.4-2.3c-3.1,0-5.9,0.8-8.4,2.3
		c-2.5,1.5-4.5,3.7-6,6.5c-1.5,2.8-2.2,6-2.2,9.8c0,3.7,0.7,7,2.2,9.8c1.5,2.8,3.5,4.9,6,6.5c2.5,1.5,5.3,2.3,8.4,2.3
		C100.8,57.5,103.6,56.8,106.2,55.2z"/>
	<path class="st0" d="M192.3,37H214v31.3c-4.4,3-9.5,5.4-15.2,7c-5.8,1.6-11.5,2.4-17,2.4c-7.9,0-15-1.6-21.3-4.9
		c-6.3-3.3-11.2-7.9-14.8-13.8c-3.6-5.9-5.3-12.6-5.3-20c0-7.5,1.8-14.2,5.3-20c3.6-5.9,8.5-10.5,14.9-13.8
		c6.4-3.3,13.6-4.9,21.6-4.9c7.3,0,13.8,1.2,19.5,3.6c5.7,2.4,10.5,6,14.3,10.6l-16,14.1c-4.7-5.4-10.2-8.1-16.6-8.1
		c-5.5,0-9.9,1.7-13.1,5c-3.2,3.3-4.9,7.8-4.9,13.5c0,5.6,1.6,10,4.8,13.4c3.2,3.4,7.5,5.1,12.9,5.1c3.2,0,6.2-0.6,9.1-1.8V37z"/>
	<path class="st0" d="M236.7,72.7c-6.3-3.3-11.3-7.9-14.9-13.8c-3.6-5.9-5.4-12.5-5.4-19.9c0-7.4,1.8-14.1,5.4-19.9
		c3.6-5.9,8.6-10.5,14.9-13.8c6.3-3.3,13.5-5,21.5-5c8,0,15.1,1.7,21.5,5c6.3,3.3,11.3,7.9,14.9,13.8c3.6,5.9,5.4,12.5,5.4,19.9
		c0,7.4-1.8,14.1-5.4,19.9c-3.6,5.9-8.6,10.5-14.9,13.8c-6.3,3.3-13.5,5-21.5,5C250.2,77.7,243.1,76.1,236.7,72.7z M266.6,55.2
		c2.5-1.5,4.5-3.7,6-6.5c1.5-2.8,2.2-6,2.2-9.8c0-3.7-0.7-7-2.2-9.8c-1.5-2.8-3.5-4.9-6-6.5c-2.5-1.5-5.3-2.3-8.4-2.3
		c-3.1,0-5.9,0.8-8.4,2.3c-2.5,1.5-4.5,3.7-6,6.5c-1.5,2.8-2.2,6-2.2,9.8c0,3.7,0.7,7,2.2,9.8c1.5,2.8,3.5,4.9,6,6.5
		c2.5,1.5,5.3,2.3,8.4,2.3C261.3,57.5,264.1,56.8,266.6,55.2z"/>
</g>
</svg>
