<?xml version="1.0" encoding="utf-8"?>
<!-- Generator: Adobe Illustrator 22.1.0, SVG Export Plug-In . SVG Version: 6.00 Build 0)  -->
<svg version="1.1" id="Layer_1" xmlns="http://www.w3.org/2000/svg" xmlns:xlink="http://www.w3.org/1999/xlink" x="0px" y="0px"
	 viewBox="0 0 200 55" style="enable-background:new 0 0 200 55;" xml:space="preserve">
<g>
	<path d="M0,1.4h17.6v38.5h23.5v13.6H0V1.4z"/>
	<path d="M50,51.3c-4.5-2.3-8-5.6-10.5-9.7c-2.5-4.1-3.8-8.8-3.8-14c0-5.2,1.3-9.9,3.8-14c2.5-4.1,6-7.4,10.5-9.7
		c4.5-2.3,9.5-3.5,15.1-3.5c5.6,0,10.6,1.2,15.1,3.5c4.5,2.3,8,5.6,10.5,9.7c2.5,4.1,3.8,8.8,3.8,14c0,5.2-1.3,9.9-3.8,14
		c-2.5,4.1-6,7.4-10.5,9.7c-4.5,2.3-9.5,3.5-15.1,3.5C59.5,54.8,54.4,53.6,50,51.3z M71,38.9c1.8-1.1,3.2-2.6,4.2-4.5
		c1-2,1.6-4.3,1.6-6.9c0-2.6-0.5-4.9-1.6-6.9c-1-2-2.4-3.5-4.2-4.5c-1.8-1.1-3.7-1.6-5.9-1.6c-2.2,0-4.2,0.5-5.9,1.6
		c-1.8,1.1-3.2,2.6-4.2,4.5c-1,2-1.6,4.3-1.6,6.9c0,2.6,0.5,4.9,1.6,6.9c1,2,2.4,3.5,4.2,4.5c1.8,1.1,3.7,1.6,5.9,1.6
		C67.3,40.5,69.2,40,71,38.9z"/>
	<path d="M127.9,26.1h15.3v22c-3.1,2.1-6.7,3.8-10.7,4.9c-4.1,1.1-8.1,1.7-12,1.7c-5.6,0-10.5-1.2-15-3.5c-4.4-2.3-7.9-5.5-10.4-9.7
		c-2.5-4.1-3.8-8.8-3.8-14.1c0-5.3,1.3-10,3.8-14.1c2.5-4.1,6-7.4,10.5-9.7c4.5-2.3,9.6-3.5,15.2-3.5c5.1,0,9.7,0.9,13.7,2.6
		c4,1.7,7.4,4.2,10.1,7.5l-11.2,9.9c-3.3-3.8-7.2-5.7-11.7-5.7c-3.9,0-7,1.2-9.2,3.5c-2.3,2.3-3.4,5.5-3.4,9.5
		c0,3.9,1.1,7.1,3.4,9.5c2.3,2.4,5.3,3.6,9,3.6c2.2,0,4.4-0.4,6.4-1.3V26.1z"/>
	<path d="M155.5,51.3c-4.5-2.3-8-5.6-10.5-9.7c-2.5-4.1-3.8-8.8-3.8-14c0-5.2,1.3-9.9,3.8-14c2.5-4.1,6-7.4,10.5-9.7
		c4.5-2.3,9.5-3.5,15.1-3.5c5.6,0,10.6,1.2,15.1,3.5c4.5,2.3,8,5.6,10.5,9.7c2.5,4.1,3.8,8.8,3.8,14c0,5.2-1.3,9.9-3.8,14
		c-2.5,4.1-6,7.4-10.5,9.7c-4.5,2.3-9.5,3.5-15.1,3.5C165,54.8,159.9,53.6,155.5,51.3z M176.5,38.9c1.8-1.1,3.2-2.6,4.2-4.5
		c1-2,1.6-4.3,1.6-6.9c0-2.6-0.5-4.9-1.6-6.9c-1-2-2.4-3.5-4.2-4.5c-1.8-1.1-3.7-1.6-5.9-1.6c-2.2,0-4.2,0.5-5.9,1.6
		c-1.8,1.1-3.2,2.6-4.2,4.5c-1,2-1.6,4.3-1.6,6.9c0,2.6,0.5,4.9,1.6,6.9c1,2,2.4,3.5,4.2,4.5c1.8,1.1,3.7,1.6,5.9,1.6
		C172.8,40.5,174.7,40,176.5,38.9z"/>
</g>
</svg>
